<mxfile host="65bd71144e">
    <diagram id="No4idHLhfFe8FJT8Rka5" name="Page-1">
        <mxGraphModel dx="918" dy="469" grid="1" gridSize="10" guides="1" tooltips="1" connect="1" arrows="1" fold="1" page="1" pageScale="1" pageWidth="850" pageHeight="1100" math="0" shadow="0">
            <root>
                <mxCell id="0"/>
                <mxCell id="1" parent="0"/>
                <mxCell id="2" value="" style="shape=image;verticalLabelPosition=bottom;labelBackgroundColor=#ffffff;verticalAlign=top;aspect=fixed;imageAspect=0;image=data:image/png,iVBORw0KGgoAAAANSUhEUgAAAP8AAAIlCAYAAAAaMi6qAAAAAXNSR0IArs4c6QAAAARnQU1BAACxjwv8YQUAAAAJcEhZcwAADsMAAA7DAcdvqGQAACb9SURBVHhe7Z2Njx1XeYf7H1X9QGpVWlAblX4QnIKKSB1RIJCkrVRBgygQcEJo+EggFhA70JKCE+NUConUkNAYQuKgIKsQoiDqNNu1LbOxWXuzMbtZJ3aWwPT+Zu+7++7xmbkfvh8z930e6dXee+bMmTPnnuecM3Nnd3/jpZdeKnKxsrJSnD17NrutKlZXV8t9fvGLX1y0TWkvvvjiRen9hOqytLSULVfbVK6OnW6rCtsnTbc6DlKWD+23vLyc3UYQTYtK+QmCmO1AfoIIGtvkP3fuXPHyyy8TBNHSWFtb2yZ4XWyT/1e/+lUBAO1FA4B3ui6QH2CGQH6AoCD/lFAb/uhHT5Vx6tSpbirA5ED+CSPR3/9P1xe/+du/sxmvf8Mbi4e//e1uDoDJgPwT5KGO4BLdhNcg4AeC556b6+YEGD/IPyHu/PJXNiX/+I03lU8OGj966sdl+n8++GA3BWD8IP8E8OLvP3Cgm7qdy970Z8U3DtzbfQcwflol//xS90WLePzQE5vi183sf3H55cVjjz3efQcwfloj/77Dndlxd1EcPNJNaAG6uffnb758c8bf/40DxT379xePP36om2OLHW99a2f5/1T3HcD4aYX8Jr5FWwYAXdtL/Jtu/mQ3pSj++4c/LNM1KPz7175etqV4+zuuLH8CTIrGy5+Kf9VdRXF6tbuxwWiJL/EleQ614YF7/6OUXquCQ0880d0CMBkaLX9bxRe23P+vRx7ppuTRpcGVO68qbwrqsuCnP/1pdwvAeGms/G0W32Z9Le/7Qe354Y/eUF7za5+P3PCxiTz1p6cL9ZzBrbd9rpsCkWik/G0W/9TPf7456w8i8LHjx4snvv/98rX+EtEX79hTrgbGgT4/lW03GDUATGKwicrLrxbFc6fHG+uvdQ82AI2Tv83ii0Fnfc/V11xT7qeZ+H+OHCkf+bX3zz77v91cw7O+vl7eX1AdF0+fLi8zJH7VswcwGpbXiuLBn4w3NMAMSqPkb7v4YphZ37hjz95yNrbl/zvf9e5SUN0MvPETN28u0fVVYb/l67N66sc/Lsu59XOfL/fTcv/q911TfPKWW4ozZ850c8K4QP4ezIL4j3cklfhVd/h7Ielv+dSnu++K4lznw9Es/e6r31sOBpJWbf+9xx4rl+0SWAOCfmq7xd47v1zc9vnbi398/weK3V/4wubyXpcVurn4kRtuKMuByYD8NcyC+OKDH/rnUn4JK9ROgyKZc2jG1ux93d//w8ZSvfPaBgPjl7/8ZffVBtqmPFotaJ8v3nHH5kAwTfTZ+s+7Km492N1hQLSflaG+JdJjThJdj2sAGGcMw9TlnxXxhcT3S/7HHn+8bKtB+Nztt/fc52c/+1lx4N57i8/edlvxvmuvK3a+829LuT+268Zy5tdKQKEVyK7O+4cefnjgeoyTaPI3lanKP0vi25Jf0hnPzc2VM/QgaGb+9Gc+2303OPps1pMVQNNIRVQ/yMWTR7s7DAjy98fU5NeH4j+MNosvNONKfv/1nNqpahlfxSuvvFLO2L2+5nvm+aJ45MiWJIuZtrM8Cm1fu1AU9z+9sY9ee5RX2xR6PU4GEVH1tHNQpOS2IX9/TEX+WRNfvOGP/6SUP72mvvue/QPf+X/ttdfKm3X64x8pkvj6+7a3n4U6vZfaS3B3p813dtrZ3lt7S3SfbqG0YWfeXgwiYq+8uW3I3x8Tl38WxX/mJz8pxf+t331dN2ULtZUuBfRzEJT/muv+rvtuCy/qFXs3BgL9tDR1fMNLcO3+rdcKtbkGEp+mstOB4OgYfo06mvy6Iffos+ONxt/t1yzjPwDFA51lZtv51rceuuh636MHdrT8H3QFoG8N/D0DiSg5Jfsu96cBfMfWNsNLoNh7aCOvLev9CkIrA0NLf0tXnjpswEhDx6oiFbEqcnlTctuaKH/u67lRRiu+6ktnfkWbfkc/x+dv313KX/eMvO786zf4FhYWuim9UTvr+n/t3LluSh4NCr49DS+BXnv8rK9VQYpfKaT3BzyWJ430eB7kH3205nv+WRsA3nvtdaX8n/rMZ8rv0t/1nqvLa3YNBgcO3Ft85zvfLb9v/8a9927ezHvhhRe6e9ejMubm/q/7bkNEzcw3dmZ+zbA73JLfwshJYORWYVUhcapQubmou1+Qiqh65iKXNyW3Tftamuoipin/yitF8YNOe4wzWvVsvz4U/2Eo2joAvP3KKy+62adf8Dl67Fi5dL/zK18pv/azZb/SPnD9B4t37LyquOnmm8ul/Xe/+2g5QKSoTLvzr9lawvs2s+t+n2bkJDC8/CrDL9nTqJN/GAYRcRbkbypTk1/MygCgG32Sv+qaXrLnth159tnO5cCh4tHHHiv+9atfLf7llk8Vu27aeETX8qudb/j4rvK179R2/W74NjTq5PeXCrll/zgZREStdHxefwmS3rA0kL8/piq/aPsAoN+Uk/iKOjT7awmv/24sJLd+sSaHtv3l5W8p7vvmN8v3diPRz/D+LvwgEnjsWwL9VBke7avI7XepDCqiz+tvTKZ9x0D+/pi6/KLNA4BE7Ud+oaX/ww9vfHf/iZs/WS7ptf/Xvv71Ms3z8iuvFO957/vKttY3BfrpO7Wu+bV018MtWpr7tjN6ye/bXWXove4n+EFGxxk1g4qYXtZopWLnbAOYwkD+/miE/KKtA8Cg8tt9Ac3mv/71r8sbgFWPACtdf87bvibUbO87u4WelfADgNFLfrGnc/lgedIY1zMYg4pYdd7pg0tG0+TXnfiFF8cbrf9jHm0cAM6fP78pvwStY9/d95T5NQjouv5Ld+zZ+CpvLf9rWbpX8G9fvascKKxsdWJ1bs1+CrXZuc51sO4BKF1hqO0sTXeEq1A+PTdgM6peawWgcseBrtutXr6+ddh5axWg+tn59HvewxxzVPBVX5+0cQB4844dpfyStQq1mT3n/4Uvfqm8/u9nH+X70Ic/0k2BNoL8A9C2AcBErnrCT+y7555N0d/2128v82vW74XdIIT2gvwD0qYB4FsPbTze+7rf+/3Kpb+u9fWUnwYI5f2DP/yjnpcJMBvwxzyGoC0DgNrjsj99Uym1HuHV+xz+//bpmh9gmjRaftGWAeDR731vU2wt59O/tqs79347sz5Mm8bLL/wA0ORfAd5z552bgivecsVflct8rQYs7fVveCPiQyNohfxCA0AbfvdfT/L5AcAHMz40idbIL8b1vfOokeD6Q5zv+JudpfA73vq2clBQuwE0hVbJDwCjA/kBgoL8AEFBfoCgID9AUJAfICjIDxAU5AcICvIDBAX5AYKC/ABBQX6AoCA/QFCQHyAoyA8QFOQHCAryAwQF+QGCgvwAQUF+gKAgP0BQkB8gKMgPEBTkBwgK8gMEBfkBgoL8AEFBfoCgID9AUJAfICjIDxAU5AcICvIDBAX5AYKC/DBxDh4pin2Hi2JxtZsAUyG8/GsXiuL6+zbi1oPdxAyWR3G6YZ32/qe318/ixgeLYu+honjyaDdjA5D4l+3eCNVvHPjPdNeYjjELhJdfIltnVDzQESmHz9M0+TVo+frl4tr9G1JMGw1EVifJOQ78Z7rzrm4iXATyJ/JfsTe/HPV5miz/VZ3OLqkku87F13tcsg2KZn+tVs6NaTBC/v5A/kR+hcRJ8dur5Fe6IjfDKq1qe902S1dU4eV/pCOWR5Jdat2Fbff7W73rzifFb/P7WZrfp6r8lDSfXtv51slvx6sq38pNy37m+Y3XbQf5Ox+ml8Pi7sPdDF38Nu3j+UFnKasBw+dRp9MMZ6jz2DbNyB7NyLZN1+jG0aWtdM3oVdTJL1SX3HbVSee5I7NCSFc/vo7q/Kqn38faS4ONL0/H9mXp+LbN32PxdVS9/PEsrwlo6L3q4Y+nfL7dcvL3e85pu+r+gb2fBZA/kd8vldWJDJ/Hy6+71n5bGv4egh8gfBk+vzqh4W+OeVFS0k6a4sXyN//SActHevnjZUzFtPD18OHPqR/5q8rxA6OoyuclTeWv2kehc/afuc+bnvMsgPyJ/H6ZrI5js43PY+JKDkvTzKwZUdv0U++Vrg5lZexxs6WOI5TX0iwsv+98dXfsfb5U/nTZb53bDyzXdQYBq7vP76X1nV/npEFPx7LztJCgSk8lszbrR35fvhdZYW2TtpuOqzSdl/a3dC+/P2f/eflz9pd86TmoDZRXdZsFkN8JrBC+w9ls4/NYR/Yy+yW+8J08J7p1/NzKQfmEn5mt0+fwnVT7qJMqvFAKL7PfZudj6Cu4dJuX30vr796nlya+/nZO/cjv21Ln7WW2wcu3ffqVoW9TL78/h/ScfXlW17RdZw3kz8ivDudnNC+tIieEl07hO751ct+RrVNaGerAtk3XpMpr+ytPHb6TVoXOx+rty9Yxfb0VXkRbcSjd0iSw4dtGeTx+n0Hk90tv4bdZOb5sG1wN/5l6+S1Nof19+GPY+fl2nZXZ3oP8GfmF79S+Yyhy8teF7+R+Hz8YaLazzqY8fkZNr3VTfCeV5NrfDz46ho5lpOdcFyaCr/e45bf2NXrJn14S9SN/XSD/xRFKfuGXgj6sc/rlsWYfdcxc+M7sry8ltb1WHhNDsvqOpzLq8Hm9mH714r+9SGf+tL4+7Lv4psmftr1HKwfb5uW3gVZh55cLO2fk34pw8ksSL5CFdU4/OHi5hG4GqqOrM/llrN77shQ6hvBS2ldR6rC9qJLf3+BKZ38vVPoVl2ZShepq+zRNft/26XH9Ni9/rj7GfOczss/L2gP5tyKc/MJ3bgvrnH5fySXZJLr28R02vRnoZyCFl8Av1xVpx85RJb/wHd4PUOlNMdVZ56NZ1H8Hbufqy2mC/P64CpWlsnWOPt3L7wdDpWuA07H0M3fOyL8VIeUXXhSF75zptjRyv1jiO5XCX7OmlxrpkjZHnfypJH6W90vnXPjBomnyi6rLMn9eXn6Rtn0a/pyRfytmVn51EIsq1JEtT9o5NaOkM7Zm96oOo/z+mH45rs7tt6V3vnPo3oHl9wOJIRlse3rzUHVML210rnpq0SMRcsdQ/Sxdx/H4fUxa7Wtpvi517eu3eflFWn+V6T9T7Zui9s+dc7pC8+3azyDcNsLLP0p0o0gdb1y/sDJO2lx3MUzd237OlwryAwQF+QGCgvwAQUF+gKAgP0BQkB8gKMgPEBTkBwgK8gMEBfkBgoL8AEFBfoCgID9AUJAfICjIDxAU5AcICvIDBAX5AYKC/ABBQX6AoCA/QFCQHyAoyA8QFOQHCAryAwQF+QGCgvwAQUF+gKAgP0BQkB8gKMgPEBTkBwgK8gMEBfkBgoL8AEFBfoCgID9AUJAfICjIDxAU5AcICvIDBAX5AYKC/ABBmbj8CwsLxdzcXG0sLy93cw/HsWPHLirzxIkTxeLiYrG+vt7NBRCbict/4cKF8qAWElUDgk+7VEHTMldWVoqlpaUy/fjx4wwAAB3khne6Lsay7JeQmpFHSVWZkl7btAoAiE6j5VflJKot3TWb9zNr9ypTZemn5+zZs8X8/PzmsbhEgFmnsfKvra2VEmq5rkoqTp48WQraS8o6+YXKULmG7jHoWPqp4+jYKkOXCKM6T4Cm0Vj5q9K1EtAKoI5e8tvNP6GBROJr5vdUpQPMCo2UX2VLPM3AKbY8r6OX/Bo8bLutMHLno3xabQDMIo2UX5WSkPqZojv32lZHL/m13Zb9tuTPoTJ6rTIA2koj5bcld9XMfyny66tGX3ZdeadOnUJ+mFkaKb/Q0j73sI+E7PVVXVWZqrP21Y08o26V4VcIALNGY+W3GXl1dbWbsrVE92k5VKau1bWCsNDlgtI1qJw/f76bcwPN7v7hH52b6tTPNwsAbaWx8gvNupJdEir0up+77ypTedOQ5DmZlWb72AChyK0GAGaFqcsv8erK0nZdn2vm7veY2ieNfvZVY+g4Ot6ozg+gqUxdfgCYDsgPEBTkBwgK8gMEBfkBgoL8AEFBfoCgID9AUJAfICjIDxAU5AcIykTlX7tQFKdXCYIYVcipYZmo/PsOF8VluwmCGFXIqWGZqPz3P10UO+8iCGJUIaeGhWt+gKAgP0BQkB8gKMgPEBTkBwgK8gMEBfkBgoL8AEFBfoCgID9AUJAfICjIDxAU5AcICvIDBAX5AYKC/ABBQX6AoCA/QFCQHyAoyA8QFOQHCAryAwQF+QGCgvwAQUF+gKAgP0BQkB8gKMgPEBTkBwgK8gMEBfkBgjIV+dfX17cFAEyeqcg/Nzd3URw/frw4c+bMJQ0GOhlWJAD9MTX5FxcXy4NbLC0tFceOHSsHgWEGAO2jclUWAPRmavIvLy93320hgTUALCwsdFO2o2NWDQz9yK88rAwANmiU/EIVSiU+f/58OSAoXTE/P19eIhgqy7ZZ+P3X1tbKQcW2nThxoiwTIDKNk1/lavvZs2fL97YakLCqrN5rm/Ksrq6WebSPDRoS3c/weq90XVYoXdKfPHmyHED0HiAqjZNfSHa/3YT2aDCQxIa2q1w/4wvl0/2FFB1DAwJAVFohv2Ez98rKSpnH3xvIye9XEUr3oX11cxEgKvLAO10XE5PfhDX0Wst0pSskvt73kt/SqgL5ITKNk1+zurbbDTl7r/yS2ZD4/cqvywYA2E6j5Jes6XJe1+u5GbqfZb/QCiF3LOW7lHMAaDtTkz99yEeCStT0IR9b8luajqsbdSrDy690paVPCdo3A/4yQsdTWtXqAyACU5M/DQkuqdNy9V6SWx6F3lt4JLOVpxMzfLoFd/ohOlORXzNzGr1QRXX9b1Lr+Ln9lKY8af0sPbcNICJywTtdFyOTHwCmD/IDBAX5AYKC/ABBQX6AoCA/QFCQHyAoyA8QFOQHCAryAwQF+QGCMlH51y4UxelVgiBGFXJqWCYq/77DRXHZboIgRhVyalgmKv/9TxfFzrsIghhVyKlh4ZofICjIDxAU5AcICvIDBAX5AYKC/ABBQX6AoCA/QFCQHyAoyA8QFOQHCAryAwQF+QGCgvwAQUF+gKAgP0BQkB8gKMgPEBTkBwgK8gMEBfkBgoL8AEFBfoCgID9AUJAfICjIDxAU5AcYIc88XxSPHBlPPHm0e5ARgfwAI+TWg/l/qDmK0P/mGyXIDzBCTP7r79t4PYrY9SDyAzQeySpRtUwfFfo//MgP0HCQvwfr6+vbgoFkC7WF2iRFafqwzp8/302BJjIq+eeXui86zJT8c3NzF8X8/Hxx5syZVg0EEjEn6qWwvLxcHD9+vPtuYzA4efLktrbS9lEfF0bDKOQ/2NlXZdx9eOP9zMm/uLhYHtzi7Nmz5QCgjt4Wjh07Vso6SlL5l5aWyvZSGwlJr+MuLCyU76FZXKr8mvG1v4UGgJmTPyeN0rQtV7Y6fdVsp3TbRz/9+yqUp9cSuqosS5eEkrPqeEpX1JEeI5X/1KlT5UDp0UCpdoLmcSnyL3Yk37F3u/z3Px1EflXGz3JCryWZ0hUSQ53fYzOwDR4WVcdIy1td7bSuQzJqZvVlnThxYlNkq6cPf6x0f61ocnWx1Y7l02WP8nn5cyB/cxlWfokvub34M7vsz8mwtrZWbrMZWRJJDptdla79lMcPEJJZoUsG5fH5/EChMpTWT3kSUGmWT2l+qa10paUzv6Urr+1vsvq6rKysXFQX1V/HrZPf6pKuBqAZDCN/nfhi5uVXRUw6Qx1cM26KxPIi2n5pnbS/Bg9D++SkScuTjAqPzdIeHTc9D5Wfk1f5/P46r1xd0jbw2CCiul5K+8P4GFT+tQtFce3+7eKrDM/MyZ8LdWovnWTRUliV9KHZUvkNCZO7UWgrCStTr1944YWLyksHCUPnqO2apVU3f0yRk19Sqy7pMWyFobqoXL1W/VJ0bjn5tZ/2SY8HzSInv2b2BzrX7jksv8V1nYHgXGdA8Myc/BLOxDCZ9dqjtLowchIKlad8Vm66fxqG7gFIYqVpUFD5/cqvNF9mGpLYRE7PV6i8nPx2mWADGTSTVH7dvbclfToA7Oss7U16xVWdfBI9ZaaX/SrLBPNIPH+dXIX2zS2hTX5dJwu9Tm/upZiYdi1umHyeKvm1bx12jFxdqmZ+rRJy5wjNIpXfxLfQd/iiX/HFTMsvTC4/G2owSAcEIXm8mBIut2yXLF4klZW7PPDl2YDhyxcqKyd/Krre5+5TaACyQUho31xdlF51zQ/NJ5XfHtixuGJvUew9dHFalfhi5uUXksZ3fBNReb2cEsTPgnpvacqnutnNMX+cqvI0cFh5Sk/3s3sHCo8GE9VZUlt7aH8rL62zH8h8/bSvwmb9nPzKp3Q/gEDzyF3z67t6L3saR+sXijHkNzn9Ul/iSRyTTyGJ/PG1XeVJHp8vnZWFyk7L0wzsy1NZfrukszSPRLSy/LF8uoXqbIOBkR5HeZSWk18P+yiP2giaS05+kS7zLewyoI6Zkn8YVFFF7rgmv5B4Vfk8deUJiart/cy0ypsrx46RSu8Z9DjQbKrkF3uS5b7/Lr+O8PLX4eUHmCZ18gv7wxz9ii+Qvwbkh6bQS3491KN7AIOA/DXoOl4nAjBtesk/DMgP0AJMfv12nmQdVSA/QMMx+ccRyA/QYPRcvpbp44pRgvwAQUF+gKAgP0BQkB8gKMgPEJSJyq+/aKL/YkoQxGhCTg3LROWv+s0mgiCGCzk1LBOVX7++qP9eShDEaKKfXwmugmt+gKAgP0BQkB8gKMgPEBTkBwgK8gMEBfkBgoL8AEFBfoCgID9AUJAfICjIDxAU5AcICvIDBAX5AYKC/ABBQX6AoCA/QFCQHyAoyA8QFOQHCAryAwQF+QGCgvwAQUF+gKAgP0BQkB8gKMgPEBTkBwgK8gMEBfkBgoL8AEFBfoCgID9AUJAfICjIDxAU5AcICvIDBAX5AYKC/ABBQX6AEbF2oftiQBZXh9/3UpiK/Ovr65UB0EYk8M67iuLuw92EPrH9rt0/+QFgKvLPzc1VhioE0CbmlzYEvmz3Rtx6sLuhBya+7TfpAWBq8i8tLWVnfi4noG0c7ch/xd4tifsZAFLxFdd15D8XQf7l5eXuuzwqX4OBvVZF02PagFGHlWP7+nJF+t7w+3gsf24f4dP1+vz58913eay89FhV9RK5/DBdTndkviqRuWoAaIL4orHya/vx48fLn3ZJYDJIqIWFhc10y5dy9uzZYn5+fjPfmTNnNss1FhcXt703jh07Vm7zpOVpPy+36qf01dXVi+qXiqz3Po9Cx7N2tfNO2/nChQtluo4BzaKfAaAp4otGyy/RTpw4UVbSJJM0Sj958mT5WukmiuQ0VlZWyjS7vFA+7SMRh5HfytOxfHmqi7WF0pVH5UlOvVfdVZZE9yhN+bRd+VS+ytIAJVRmek5C55OrLzSD3ABw44Mb1/I58Xd1tk1DfDE1+dWBJYQPdWzDhJYYnipZla6BwsjN3EKC+f37lV/vTUxDbaDybCAz+dN8NnDYuaTvDaX7fa1dPFXnBc0hNwDoZl4qfr83BsfF1OSXqOrEPkwiodcSK8X2U8V9aOBQuaqXSbi2ttbda4t05lRZveT3S+30uJJTKwBRdVzlU7rJfurUqYukzqFy7JyElaOf0GxyA4CPaYsv1I+803UxlWv+FEmp/atCgpmEOUnScvuR36SrChO56ri2v8mfm9FzpCuLqrpCM6kaAJogvmil/P7yIIdJOOqZ39/cy9Gv/CrXX6LUofraQKE6caOvXaQDQFPEF62TX+LkZk2J6eXUjGnyeiSQL1fHUV5/Piax39/PwB41oEndr/y6ieffGxqs0jrbvlX3CaD52AAw6NN/46Z18ktw7a8bYyaCTsLP1MIEs7vlqq/N+r5ck0vX7Spb7zUrp4OHL09lKSzNZuN+5de+qq+OYwNW7hwM1UXRz6UCNJNp3dGvQ33OO10XjZBfaIaUKCrHQmKks6LK8HkkVq5cn0+SSeaciGl5ymuDi+hXfqHXuXPItasdlyU/jJKpyD8qbKZOpfeonspjM2xOfqF8KqfXefnyRtEG/ZyDPQMAMEpaLf8wVMnfVNTOVZcDAJcC8jcYe4JQ9a1bGQAMQzj5dcL+Or3JqJ52gxFg1ISTHwA2QH6AoCA/QFCQHyAoyA8QFOQHCAryAwQF+QGCMlH59TfMnnmeIIhRh9walInKv+/w9r9oQhDEaEJuDcpE5T94pCiuv48giFGH3BoUrvkBgoL8AEFBfoCgID9AUJAfICjIDxAU5AcICvIDBAX5AYKC/ABBQX6AoCA/QFCQHyAoyA8QFOQHCAryAwQF+QGCgvwAQUF+gKAgP0BQkB8gKMgPEBTkBwgK8gMEBfkBgoL8AEFBfoCgID9AUJAfICjIDxAU5AcICvIDBAX5AYKC/ABBQX6AoCA/QFCQHyAoyA8QFOQHCAryAwQF+QGCgvwAQUF+gKAgP0BQkB8gKMgPEBTkBwgK8gMEBfkBgoL8AEFBfoCgID9AUJAfICjIDxAU5AcICvIDBAX5AYKC/ABBQX6AoCA/QFCQHyAoyA8QFOQHCAryAwQF+QGCgvwAQUF+gKAgP0BQkB8gKMgPEBTkBwgK8gMEBfkBgoL8AEFBfoCgID9AUJAfICjIDxAU5AcICvIDBAX5AYKC/ABBQX6AoCA/QFCQHyAoyA8QFOQHCAryAwQF+QGCgvwAQUF+gKAgP0BQkB8gKMgPEBTkBwgK8gMEBfkBgoL8AEFBfoCgID9AUJAfICjIDxAU5AcICvIDBAX5AYKC/ABBQX6AoCA/QFCQHyAoyA8QFOQHCAryAwQF+QGCgvwAQUF+gKAgP0BQkB8gKMgPEBTkBwgK8gMEBfkBgoL8AEFBfoCgID9AUJAfICjIDxAU5AcICvIDBAX5AYKC/ABBQX6AoCA/QFCQHyAoyA8QlFDyr10oiiePFsUjR4pi32GCGE+ofz3z/EZ/azIzL78+hL2HimLnXUVx2W6CmGxcf19R3P90USyudjtkg5hZ+SW9Gj73gRDENOLWg80aBGZOfjUu0hNNjqYMAjMlv5ZXO/bmG5wgmhS6DD261O24U2Jm5Nd1fa6RCaLJ8UBnwpoWMyG/llG5hiWINsTdh7sdecK0Xn59tZJrUIJoUxw80u3QE6TV8usaP9eQBNG2uGLv5G8CtlZ+NRQ394hZimv3dzv3hGit/FznE7MYk7z+b6X8eoAn13AE0fbQ8n9SjwW3Un4e4ml/aImrjp7bFj0mNfu3Tn5d6+cabFKhXwzSymPYjqv9tP8gly26sdnvasd+qSQN1bspl0qqh9BDLrntlxrDtHGTQvWfBK2Tf5p3+K3Tij1DPlSkJ7vEIF9RqiOL3LY0TnfvGHvx/ZNk2j7tGVcrN6Gvt3LbLzWGaeOmhX3m46R18k9zya/ZU9djCn04uTy9YlLy57bZcnLWvyKdBfknsfRvnfy5hppEXNXtUJqtJI9QJ8vl9aE8GrB0jWvvRVXH1KysvH6QG5X8Cq0CNHjltvljV60OlO7Puyq/nbfazaf77X6ftFzb39qtLtK8ei/q5Ld6V9Wv6jx9nnGGjjVuWiX/uK4R+wlb8utDsQ+mrnOpU6VLNw0c6kQit69+P+Gcu9MrkXc9OFr5dU9A+I6tSI8tVN9Uattf52fHEnqtc8udd7rSyMnp2zd92k1l5yTNHUurs0HaWKiMtHztK1QffwyfZ5yhdh83rZJfH0KuoSYRGnj8zUZ1yKoZ1MTQdi3fbuwIrM6t/X/Q6Zwi7Zi2zNM5Kq9JoDLsmt3nrwoTMrdNYR3ZS111bJEOuCa/0iW1zk37q54KHV/7+nMWem1l1MmvcnP1SD97a2PRbxtLfDHfOYaVr1+ssXr7NjH5fX0Uvrxxh+o1TlolvzperpHGHepoQh3R0kwYdSCfV2EdNu0s6lwmg++YVn4qmsI6rEi35aJO/txxcudmYefoz8Pkrxu8fLrNYJqRLa2X/JZmoTKFX61YG6t9fF4dT2WItI3VNn4At9BnmObXa5Frl0mFfZbjAvn7COtoXnTrwLmbZzZbp+kKk9l3NEvLDSQKmwFy29KwDqPyfaiettz1x6m7fyGRdGwvrsmvpbXPmxPIQnXyg0Kd/LlvUWybr3eVyArLnyu/qo31ealMe6996/JPIpDfMS35qzqaOrTk8MvFukHBb/cd04Ty5fiQfCK3LY26DqPlbtqZ7RxUn1xom5fC6poOFqOSPydbui23mvCRK98GOf20c/Nh7Wb5lSaQfyOmLn/Vhz3OsE6tWVMfhg+bSXW9aflzHc9Hnfw+n49e231Yh9FxLFQ/4QW0UJpIz82H368J8tv+qkua12/PtXF6bmlYfu0rpim/rfjGRavkr1pKjzNsya/OmwvbZvl7dcycJFVCWdhxctvSUAfO5bUy0s6sAVWdzKfVRRPkt5m/qo1zd/vrLm9yMW357RzHSavkH6STjiLsA/AdNw2Tyi/ZVc+qutZd8+eud30nSLflokp+k9PPboq6G5e5aIL8CpVZ1caWP1e+X6X58J+fYtryW3uOk1bJLyb5YViH0c/cdkWuo5lQqQh2xzndpo6njqxtyuP3sbKET68KKz+3zVYxfpAxEXMDXG5Qaor81i7pvZVh2ljvhS9L+4pJ9jcf1vbjpHXy5zrXuMJm9bSj+7BO5Tu30uwrPQmnOqtj6R6BCZieh33Y6pzaplCZKsfq4fNXRZ38Og/VVeFnutyx7Sajju/PvynyD9PGdu9D9VFev4/axJ+TtolpyW+f+Thpnfy+E40z1LnUSfq5yagOpLz+6y91JOuEQp1Ls5XSlVfC+TIU6uTWoYXOVfmt/DR/LrRPXV4dV9vTSwwd274fFzageSEUVpc0XededV4qx7djrg0kptJyslVtUzlpG6t+ufL9PqqPR+/Try6tnaYhv61Exk3r5BfTGo2HjVSUXqE/TzatP1Gm4w5a3ybEMHVu6nnaSmfctFJ+jdS5RiOIWQitOCZBK+UXbZv9CaKf8Dd4x01r5Z/Gd/4EMc7Qtb49ODYJWiu/0M2dXCMSRBvD33CdBK2WX+jmSK4hCaJNMcnlvtF6+fX1Tvo1DUG0KaYhvmi9/EIDgP7iTa5hCaLJMS3xxUzIb6RPdBFEU0MPkfkHlKbBTMkv9AxA+uw2QTQp9DX1pL7Lr2Pm5Dc0qjIIEE0KSZ8+WjxNZlZ+Q4OA7gf4X2QhiEmF+p1+T6BJ0hszL79HH4CeDdC9AX1FSBDjCPUv/fZjE5b2dYSSHwC2QH6AoCA/QFCQHyAoyA8QFOQHCAryAwQF+QGCgvwAQUF+gKAgP0BQhpb/1VdfLdbX1wmCaGmcO3dum+B1sU1+giDiBPITRNBAfoIIGshPEEED+QkiaCA/QQQN5CeIoIH8BBE0kJ8gQsZLxf8Dwx1Ugeu/PUQAAAAASUVORK5CYII=;" vertex="1" parent="1">
                    <mxGeometry x="690" y="10" width="155" height="333.71" as="geometry"/>
                </mxCell>
                <mxCell id="10" style="edgeStyle=orthogonalEdgeStyle;html=1;exitX=0.5;exitY=1;exitDx=0;exitDy=0;entryX=0.5;entryY=0;entryDx=0;entryDy=0;" edge="1" parent="1" source="3" target="4">
                    <mxGeometry relative="1" as="geometry"/>
                </mxCell>
                <mxCell id="11" style="edgeStyle=orthogonalEdgeStyle;html=1;exitX=0.5;exitY=1;exitDx=0;exitDy=0;" edge="1" parent="1" source="3" target="6">
                    <mxGeometry relative="1" as="geometry"/>
                </mxCell>
                <mxCell id="12" style="edgeStyle=orthogonalEdgeStyle;html=1;exitX=0.5;exitY=1;exitDx=0;exitDy=0;entryX=0.5;entryY=0;entryDx=0;entryDy=0;" edge="1" parent="1" source="3" target="8">
                    <mxGeometry relative="1" as="geometry"/>
                </mxCell>
                <mxCell id="13" style="edgeStyle=orthogonalEdgeStyle;html=1;exitX=0.5;exitY=1;exitDx=0;exitDy=0;entryX=0.5;entryY=0;entryDx=0;entryDy=0;" edge="1" parent="1" source="3" target="9">
                    <mxGeometry relative="1" as="geometry"/>
                </mxCell>
                <mxCell id="3" value="New Reminder" style="ellipse;whiteSpace=wrap;html=1;" vertex="1" parent="1">
                    <mxGeometry x="350" y="40" width="90" height="80" as="geometry"/>
                </mxCell>
                <mxCell id="4" value="Nav Bar" style="whiteSpace=wrap;html=1;fillColor=#000033;" vertex="1" parent="1">
                    <mxGeometry x="40" y="160" width="120" height="60" as="geometry"/>
                </mxCell>
                <mxCell id="6" value="Title" style="whiteSpace=wrap;html=1;" vertex="1" parent="1">
                    <mxGeometry x="210" y="160" width="120" height="60" as="geometry"/>
                </mxCell>
                <mxCell id="17" style="edgeStyle=orthogonalEdgeStyle;html=1;exitX=0.5;exitY=1;exitDx=0;exitDy=0;entryX=0.5;entryY=0;entryDx=0;entryDy=0;" edge="1" parent="1" source="8" target="14">
                    <mxGeometry relative="1" as="geometry"/>
                </mxCell>
                <mxCell id="18" style="edgeStyle=orthogonalEdgeStyle;html=1;exitX=0.5;exitY=1;exitDx=0;exitDy=0;entryX=0.5;entryY=0;entryDx=0;entryDy=0;" edge="1" parent="1" source="8" target="15">
                    <mxGeometry relative="1" as="geometry"/>
                </mxCell>
                <mxCell id="19" style="edgeStyle=orthogonalEdgeStyle;html=1;exitX=0.5;exitY=1;exitDx=0;exitDy=0;" edge="1" parent="1" source="8" target="16">
                    <mxGeometry relative="1" as="geometry"/>
                </mxCell>
                <mxCell id="8" value="Form" style="whiteSpace=wrap;html=1;" vertex="1" parent="1">
                    <mxGeometry x="370" y="160" width="120" height="60" as="geometry"/>
                </mxCell>
                <mxCell id="21" style="edgeStyle=orthogonalEdgeStyle;html=1;exitX=1;exitY=1;exitDx=0;exitDy=0;entryX=0.5;entryY=0;entryDx=0;entryDy=0;" edge="1" parent="1" source="9" target="20">
                    <mxGeometry relative="1" as="geometry"/>
                </mxCell>
                <mxCell id="9" value="Add Reminder &lt;br&gt;Button" style="whiteSpace=wrap;html=1;fillColor=#000033;" vertex="1" parent="1">
                    <mxGeometry x="540" y="160" width="120" height="60" as="geometry"/>
                </mxCell>
                <mxCell id="14" value="Text input" style="whiteSpace=wrap;html=1;" vertex="1" parent="1">
                    <mxGeometry x="230" y="250" width="120" height="60" as="geometry"/>
                </mxCell>
                <mxCell id="15" value="Frequency Check Box" style="whiteSpace=wrap;html=1;" vertex="1" parent="1">
                    <mxGeometry x="365" y="250" width="120" height="60" as="geometry"/>
                </mxCell>
                <mxCell id="16" value="Drop Down Box" style="whiteSpace=wrap;html=1;" vertex="1" parent="1">
                    <mxGeometry x="510" y="250" width="120" height="60" as="geometry"/>
                </mxCell>
                <mxCell id="20" value="Schedule Page" style="ellipse;whiteSpace=wrap;html=1;" vertex="1" parent="1">
                    <mxGeometry x="390" y="430" width="80" height="80" as="geometry"/>
                </mxCell>
                <mxCell id="22" value="Make post request &lt;br&gt;to database" style="text;html=1;align=center;verticalAlign=middle;resizable=0;points=[];autosize=1;strokeColor=none;fillColor=none;" vertex="1" parent="1">
                    <mxGeometry x="580" y="120" width="110" height="30" as="geometry"/>
                </mxCell>
                <mxCell id="23" value="useReducer&lt;br&gt;&amp;nbsp;VS &lt;br&gt;useState ?" style="text;html=1;align=center;verticalAlign=middle;resizable=0;points=[];autosize=1;strokeColor=#6F0000;fillColor=#a20025;fontColor=#ffffff;" vertex="1" parent="1">
                    <mxGeometry x="595" y="55" width="80" height="50" as="geometry"/>
                </mxCell>
                <mxCell id="24" value="Extra input needed&lt;br&gt;Number of times" style="text;html=1;align=center;verticalAlign=middle;resizable=0;points=[];autosize=1;strokeColor=none;fillColor=none;" vertex="1" parent="1">
                    <mxGeometry x="707.5" y="360" width="120" height="30" as="geometry"/>
                </mxCell>
                <mxCell id="26" value="Ask Christophe" style="text;html=1;align=center;verticalAlign=middle;resizable=0;points=[];autosize=1;strokeColor=none;fillColor=none;" vertex="1" parent="1">
                    <mxGeometry x="717.5" y="390" width="100" height="20" as="geometry"/>
                </mxCell>
            </root>
        </mxGraphModel>
    </diagram>
</mxfile>